# xmcd CD Database Entry
#
# Track frame offsets:
# 150
# 12270
# 29710
# 42762
# 53720
# 63580
# 74105
# 88697
# 104622
# 117647
# 130777
# 150997
# 170567
#
# Disc length: 2556 seconds
#
# Revision: 1
# Processed by: cddbd v1.4PL0 Copyright (c) Steve Scherf et al.
# Submitted via: tcd 2.0b
#
DISCID=b909fa0d
DTITLE=Townes Van Zandt - Live and Obscure
DYEAR=1900
DGENRE=
TTITLE0=Dollar Bill Blues
TTITLE1=Many a Fine Lady
TTITLE2=Nothin'
TTITLE3=Pueblo Waltz
TTITLE4=Talking Thunderbird Blues
TTITLE5=Rex's Blues
TTITLE6=White Freightliner Blues
TTITLE7=Loretta
TTITLE8=Snake Mountain Blues
TTITLE9=Waitin' Round to Die
TTITLE10=Tecumseh Valley
TTITLE11=Pancho and Lefty
TTITLE12=You Are Not Needed Now
EXTD=
EXTT0=
EXTT1=
EXTT2=
EXTT3=
EXTT4=
EXTT5=
EXTT6=
EXTT7=
EXTT8=
EXTT9=
EXTT10=
EXTT11=
EXTT12=
PLAYORDER=
